<svg xmlns="http://www.w3.org/2000/svg" width="20" height="20" viewBox="0 0 20 20">
    <g fill="#007AFF" fill-rule="evenodd">
        <path d="M6.14 14.286a1.68 1.68 0 0 0 .235-.857c0-.947-.784-1.715-1.75-1.715s-1.75.768-1.75 1.715c0 .312.085.605.234.857H3a1 1 0 0 1-1-1V5a1 1 0 0 1 1-1h7.018a1 1 0 0 1 1 .993l.007 1.023h2.302L16 9.934v3.352a1 1 0 0 1-1 1h-.11a1.68 1.68 0 0 0 .235-.857c0-.947-.784-1.715-1.75-1.715s-1.75.768-1.75 1.715c0 .312.085.605.234.857H6.141zm4.833-7.122V10h3.714L12.72 7.164h-1.746z"/>
        <path fill-rule="nonzero" d="M4.625 16C3.175 16 2 14.849 2 13.429c0-1.42 1.175-2.572 2.625-2.572S7.25 12.008 7.25 13.43C7.25 14.849 6.075 16 4.625 16zm0-1.286c.725 0 1.313-.575 1.313-1.285s-.588-1.286-1.313-1.286-1.313.575-1.313 1.286c0 .71.588 1.285 1.313 1.285zM13.375 16c-1.45 0-2.625-1.151-2.625-2.571 0-1.42 1.175-2.572 2.625-2.572S16 12.008 16 13.43C16 14.849 14.825 16 13.375 16zm0-1.286c.725 0 1.313-.575 1.313-1.285s-.588-1.286-1.313-1.286-1.313.575-1.313 1.286c0 .71.588 1.285 1.313 1.285z"/>
       
    </g>
</svg>
